<svg id="Capa_1" enable-background="new 0 0 501 501" height="512" viewBox="0 0 501 501" width="512" xmlns="http://www.w3.org/2000/svg"><g><path d="m490 256c0 135.31-109.69 245-245 245s-245-109.69-245-245 109.69-245 245-245 245 109.69 245 245z" fill="#f02399"/><path d="m249 115.5c0-8.008 6.492-14.5 14.5-14.5h101c8.008 0 14.5 6.492 14.5 14.5s-6.492 14.5-14.5 14.5h-101c-8.008 0-14.5-6.492-14.5-14.5zm84.5-36.5h80.899c-11.266-10.786-23.561-20.506-36.721-29h-44.178c-8.008 0-14.5 6.492-14.5 14.5s6.492 14.5 14.5 14.5zm156.207 164.915c-32.003-15.33-67.852-23.915-105.707-23.915-85.423 0-160.635 43.718-204.483 110h-168.143c6.902 21.811 16.774 42.3 29.141 60.995 4.93 7.452 13.286 11.919 22.222 11.919h302.112c58.158 0 108.6-40.745 120.213-97.731 3.238-15.889 4.938-32.337 4.938-49.183 0-4.052-.099-8.081-.293-12.085zm-380.707 31.585c0-8.008-6.492-14.5-14.5-14.5h-94.45c.197 9.819.971 19.497 2.29 29h92.16c8.008 0 14.5-6.492 14.5-14.5z" fill="#fd73c4"/><path d="m383.204 402.915h-108.501c-3.707-8.827-5.703-18.201-5.703-27.915 0-52.467 58.203-95 130-95 33.123 0 63.352 9.053 86.308 23.957-2.218 11.176-5.196 22.079-8.878 32.652-13.821 39.684-51.204 66.306-93.226 66.306z" fill="#fc9302"/><path d="m477.081 334.714c-12.29 36.249-32.835 68.688-59.396 95.081-2.862.136-5.759.205-8.685.205-55.228 0-100-24.625-100-55s44.772-55 100-55c26.3 0 50.229 5.584 68.081 14.714z" fill="#fded32"/><path d="m422.086 425.309c-35.065-8.546-59.526-27.856-59.526-50.309 0-25.274 30.995-46.566 73.22-53.005 15.643 2.385 29.745 6.81 41.301 12.72-11.603 34.221-30.562 65.046-54.995 90.594z" fill="#fdf385"/><path d="m450.141 390c-43.751 66.842-119.289 111-205.141 111s-161.39-44.158-205.141-111z" fill="#08a8f0"/><path d="m399 410h-160c-5.523 0-10-4.477-10-10s4.477-10 10-10h160c5.523 0 10 4.477 10 10s-4.477 10-10 10zm-39.5 20.875c-5.523 0-10 4.477-10 10s4.477 10 10 10h34.009c8.107-6.188 15.816-12.869 23.083-20z" fill="#63bcfa"/><path d="m321 110v378.983c-23.926 7.8-181.226-5.914-222-36.219-10.705-7.956-20.738-16.766-30-26.327v-316.437c0-5.523 4.477-10 10-10h40v-20c0-5.523 4.477-10 10-10h1v-30h12v30h106v-30h12v30h1c5.523 0 10 4.477 10 10v20h40c5.523 0 10 4.477 10 10z" fill="#003278"/><path d="m416.347 243.241-22.947-19.094v226.812c-6.425 4.897-13.099 9.485-20 13.74v-244.627l-16.923 26.886c-8.177-8.431-8.996-23.252-1.265-35.535.305-.484.62-.959.943-1.423h-27.155c2.63-10.795 13.607-19.065 27.072-19.926l-21.383-13.438c8.425-8.183 23.246-9.013 35.534-1.29 6.251 3.929 10.792 9.408 13.256 15.31.62-7.928 4.85-16.14 12.21-22.153 11.239-9.183 26.048-10.192 35.421-3.114l-31.437 25.685c2.761-.698 5.691-1.074 8.726-1.074 14.514 0 26.62 8.589 29.4 20h-30.177c10.317 9.291 13.717 23.041 8.725 33.241z" fill="#003278"/><path d="m479.548 338.491-22.948-19.094v60.173c-5.973 10.205-12.662 19.94-20 29.134v-93.382l-16.923 26.885c-8.177-8.431-8.996-23.252-1.265-35.535.305-.484.62-.959.943-1.423h-27.155c2.63-10.795 13.607-19.065 27.072-19.926l-21.383-13.438c8.425-8.183 23.246-9.013 35.534-1.29 6.251 3.929 10.792 9.408 13.256 15.31.62-7.928 4.85-16.14 12.21-22.153 11.239-9.183 26.048-10.192 35.421-3.114l-31.437 25.685c2.761-.698 5.691-1.074 8.726-1.074 14.514 0 26.62 8.589 29.4 20h-30.177c10.318 9.291 13.718 23.041 8.726 33.242z" fill="#2740af"/><path d="m321 110v378.983c-23.926 7.8-49.471 12.017-76 12.017-54.707 0-105.225-17.93-146-48.235v-327.765c0-5.523 4.477-10 10-10h132.186c4.107 0 7.688-3.164 7.811-7.269.128-4.247-3.278-7.731-7.497-7.731h-82.5c-5.523 0-10-4.477-10-10v-10c0-5.523 4.477-10 10-10h102c5.523 0 10 4.477 10 10v20h40c5.523 0 10 4.477 10 10z" fill="#00429a"/><path d="m289 150v347.06c-6.579 1.193-13.249 2.123-20 2.78v-349.84c0-5.523 4.477-10 10-10s10 4.477 10 10zm-60-10c-5.523 0-10 4.477-10 10v349.637c6.592.695 13.262 1.129 20 1.291v-350.928c0-5.523-4.477-10-10-10zm-50 0c-5.523 0-10 4.477-10 10v338.983c6.55 2.135 13.221 4.002 20 5.587v-344.57c0-5.523-4.477-10-10-10zm-50 0c-5.523 0-10 4.477-10 10v316.16c6.478 3.892 13.151 7.493 20 10.785v-326.945c0-5.523-4.477-10-10-10z" fill="#003278"/><path d="m138.5 50h-24.5c-2.761 0-5-2.239-5-5v-40c0-2.761 2.239-5 5-5h24.5c2.761 0 5 2.239 5 5v40c0 2.761-2.239 5-5 5z" fill="#f5c02c"/><path d="m323.774 120.73 7.433 13.59c.129.236.322.429.558.558l13.59 7.433c.974.532.974 1.931 0 2.463l-13.59 7.433c-.236.129-.429.322-.558.558l-7.433 13.59c-.532.974-1.931.974-2.463 0l-7.433-13.59c-.129-.236-.322-.429-.558-.558l-13.59-7.433c-.974-.532-.974-1.931 0-2.463l13.59-7.433c.236-.129.429-.322.558-.558l7.433-13.59c.533-.973 1.931-.973 2.463 0zm-47.774-70.73h-142c-2.761 0-5-2.239-5-5v-40c0-2.761 2.239-5 5-5h142c2.761 0 5 2.239 5 5v15.123c-2.584 2.737-2.584 7.016 0 9.753v15.124c0 2.761-2.239 5-5 5z" fill="#fded32"/><path d="m213.56 25.742-8.185 4.477c-.142.077-.258.194-.336.336l-4.477 8.185c-.321.586-1.163.586-1.484 0l-4.477-8.185c-.078-.142-.194-.259-.336-.336l-8.185-4.477c-.586-.321-.586-1.163 0-1.483l8.185-4.477c.142-.078.259-.194.336-.336l4.477-8.185c.321-.586 1.163-.586 1.484 0l4.477 8.185c.078.142.194.259.336.336l8.185 4.477c.587.32.587 1.162 0 1.483zm66.815-5.961c-.142-.078-.258-.194-.336-.336l-4.477-8.185c-.321-.586-1.163-.586-1.484 0l-4.477 8.185c-.078.142-.194.259-.336.336l-8.185 4.477c-.586.321-.586 1.163 0 1.483l8.185 4.477c.142.077.259.194.336.336l4.477 8.185c.321.586 1.163.586 1.484 0l4.477-8.185c.078-.142.194-.259.336-.336l.625-.342v-9.753zm-141.815 4.477-8.185-4.477c-.142-.078-.258-.194-.336-.336l-4.477-8.185c-.321-.586-1.163-.586-1.484 0l-4.477 8.185c-.078.142-.194.259-.336.336l-8.185 4.477c-.586.321-.586 1.163 0 1.483l8.185 4.477c.142.077.259.194.336.336l4.477 8.185c.321.586 1.163.586 1.484 0l4.477-8.185c.078-.142.194-.259.336-.336l8.185-4.477c.587-.32.587-1.162 0-1.483zm37.5 0-8.185-4.477c-.142-.078-.258-.194-.336-.336l-4.477-8.185c-.321-.586-1.163-.586-1.484 0l-4.477 8.185c-.078.142-.194.259-.336.336l-8.185 4.477c-.586.321-.586 1.163 0 1.483l8.185 4.477c.142.077.259.194.336.336l4.477 8.185c.321.586 1.163.586 1.484 0l4.477-8.185c.078-.142.194-.259.336-.336l8.185-4.477c.587-.32.587-1.162 0-1.483z" fill="#d98800"/><path d="m241.427 243.49 5.854 10.704c.101.186.254.338.439.439l10.704 5.854c.767.419.767 1.521 0 1.94l-10.704 5.854c-.186.101-.338.254-.439.44l-5.854 10.704c-.419.767-1.521.767-1.94 0l-5.854-10.704c-.101-.186-.254-.338-.439-.44l-10.704-5.854c-.767-.419-.767-1.521 0-1.94l10.704-5.854c.186-.101.338-.254.439-.439l5.854-10.704c.42-.767 1.521-.767 1.94 0zm-4.848-232.23-4.477 8.185c-.078.142-.194.258-.336.336l-8.185 4.477c-.586.321-.586 1.163 0 1.484l8.185 4.477c.142.078.258.194.336.336l4.477 8.185c.321.586 1.163.586 1.484 0l4.477-8.185c.078-.142.194-.258.336-.336l8.185-4.477c.586-.321.586-1.163 0-1.484l-8.185-4.477c-.142-.078-.258-.194-.336-.336l-4.477-8.185c-.322-.586-1.164-.586-1.484 0z" fill="#fff5f5"/><path d="m73.774 163.645 7.433 13.59c.129.236.322.429.558.558l13.59 7.433c.974.532.974 1.931 0 2.463l-13.59 7.433c-.236.129-.429.322-.558.558l-7.433 13.59c-.532.974-1.931.974-2.463 0l-7.433-13.59c-.129-.236-.322-.429-.558-.558l-13.59-7.433c-.974-.532-.974-1.931 0-2.463l13.59-7.433c.236-.129.429-.322.558-.558l7.433-13.59c.533-.974 1.931-.974 2.463 0z" fill="#fdade0"/><path d="m321.427 423.49 5.854 10.704c.101.186.254.338.44.44l10.704 5.854c.767.419.767 1.521 0 1.94l-10.704 5.854c-.186.101-.338.254-.44.44l-5.854 10.704c-.419.767-1.521.767-1.94 0l-5.854-10.704c-.101-.186-.254-.338-.44-.44l-10.704-5.854c-.767-.419-.767-1.521 0-1.94l10.704-5.854c.186-.101.338-.254.44-.44l5.854-10.704c.42-.767 1.521-.767 1.94 0z" fill="#98e5fb"/><path d="m141.427 403.49 5.854 10.704c.101.186.254.338.439.44l10.704 5.854c.767.419.767 1.521 0 1.94l-10.704 5.854c-.186.101-.338.254-.439.44l-5.854 10.704c-.419.767-1.521.767-1.94 0l-5.854-10.704c-.101-.186-.254-.338-.439-.44l-10.704-5.854c-.767-.419-.767-1.521 0-1.94l10.704-5.854c.186-.101.338-.254.439-.44l5.854-10.704c.42-.767 1.521-.767 1.94 0z" fill="#0266eb"/><path d="m191.427 293.49 5.854 10.704c.101.186.254.338.439.44l10.704 5.854c.767.419.767 1.521 0 1.94l-10.704 5.854c-.186.101-.338.254-.439.44l-5.854 10.704c-.419.767-1.521.767-1.94 0l-5.854-10.704c-.101-.186-.254-.338-.439-.44l-10.704-5.854c-.767-.419-.767-1.521 0-1.94l10.704-5.854c.186-.101.338-.254.439-.44l5.854-10.704c.42-.767 1.521-.767 1.94 0z" fill="#314dc8"/></g></svg>