<svg id="Capa_1" enable-background="new 0 0 512 512" height="512" viewBox="0 0 512 512" width="512" xmlns="http://www.w3.org/2000/svg"><g><g><g><path d="m95.395 507.605c-5.859-5.859-5.859-15.352 0-21.211l37.5-37.5c5.859-5.859 15.352-5.859 21.211 0s5.859 15.352 0 21.211l-37.5 37.5c-5.86 5.86-15.352 5.86-21.211 0z" fill="#f3f5f9"/></g></g><g><g><path d="m395.395 507.605-37.5-37.5c-5.859-5.859-5.859-15.352 0-21.211s15.352-5.859 21.211 0l37.5 37.5c5.859 5.859 5.859 15.352 0 21.211-5.86 5.86-15.352 5.86-21.211 0z" fill="#d8e0f0"/></g></g><path d="m256 137h-135v150h135 135v-150z" fill="#e64550"/><path d="m256 137h135v150h-135z" fill="#cc2934"/><path d="m406 122h-150-150c-8.284 0-15 6.714-15 15 0 8.284 6.716 15 15 15h150 150c8.284 0 15-6.716 15-15 0-8.286-6.716-15-15-15z" fill="#ff666b"/><path d="m421 137c0-8.286-6.716-15-15-15h-150v30h150c8.284 0 15-6.716 15-15z" fill="#cc2934"/><path d="m256 30h-75v182h75 75v-182z" fill="#243559"/><path d="m256 30h75v182h-75z" fill="#151d33"/><path d="m450.238 432.254-30-90c-2.05-6.123-7.793-10.254-14.238-10.254h-150-150c-6.445 0-12.188 4.131-14.238 10.254l-30 90c-2.607 7.866 1.641 16.362 9.492 18.97l180 60c1.553.513 3.135.776 4.746.776s3.193-.264 4.746-.776l180-60c7.852-2.608 12.1-11.104 9.492-18.97z" fill="#ff666b"/><path d="m440.746 451.224c7.852-2.607 12.1-11.104 9.492-18.97l-30-90c-2.05-6.123-7.793-10.254-14.238-10.254h-150v180c1.611 0 3.193-.264 4.746-.776z" fill="#e64550"/><g><path d="m241 476.194-60-20.006v-94.188h60z" fill="#e64550"/></g><g><path d="m271 362h60v94.188l-60 20.006z" fill="#cc2934"/></g><g><path d="m116.811 362h34.189v84.185l-56.016-18.677z" fill="#e64550"/></g><g><path d="m361 446.185v-84.185h34.189l21.827 65.508z" fill="#cc2934"/></g><path d="m346 0h-90-90c-8.291 0-15 6.709-15 15v30c0 8.291 6.709 15 15 15h90 90c8.291 0 15-6.709 15-15v-30c0-8.291-6.709-15-15-15z" fill="#3f5480"/><path d="m361 45v-30c0-8.291-6.709-15-15-15h-90v60h90c8.291 0 15-6.709 15-15z" fill="#243559"/><circle cx="256" cy="287" fill="#3f5480" r="135"/><path d="m391 287c0-74.443-60.557-135-135-135v270c74.443 0 135-60.557 135-135z" fill="#243559"/><circle cx="256" cy="287" fill="#d8e0f0" r="75"/><path d="m331 287c0-41.353-33.633-75-75-75v150c41.367 0 75-33.647 75-75z" fill="#b8c8e6"/></g></svg>