<svg id="Capa_1" enable-background="new 0 0 512 512" height="512" viewBox="0 0 512 512" width="512" xmlns="http://www.w3.org/2000/svg"><g><g><path d="m512 256c0 63.808-23.339 122.155-61.941 166.976-111.04 55.989-241.184 59.947-355.413 10.795l-37.003-15.925c-36.032-44.107-57.643-100.449-57.643-161.846 0-141.387 114.613-256 256-256s256 114.613 256 256z" fill="#82dcec"/><g><g><path d="m512 256c0 63.808-23.349 122.165-61.963 166.987-111.04 55.979-241.173 59.936-355.392 10.784l-37.003-15.925c-36.031-44.107-57.642-100.449-57.642-161.846 0-46.219 12.245-89.568 33.675-126.997 44.128 77.066 127.168 129.002 222.325 129.002s178.208-51.936 222.325-129.003c21.43 37.43 33.675 80.779 33.675 126.998z" fill="#6fced8"/></g></g></g><g><g><g><g><path d="m342.7 182.973h-70.328v112.231h70.328 107.361v-29.17z" fill="#5b638c"/><path d="m342.7 218.613h-91.372v76.591h91.372 98.997z" fill="#464d7f"/><path d="m450.059 275.037v147.939c-6.272 7.275-12.949 14.208-19.989 20.747h-157.697v-168.686z" fill="#dd316b"/><path d="m272.372 109.726v29.17h-214.722v-29.17l107.361-83.061z" fill="#5b638c"/><path d="m272.372 109.726v29.17h-107.361v-112.231z" fill="#464d7f"/><path d="m264.009 138.896h-197.995l98.997-76.591z" fill="#464d7f"/><path d="m264.009 138.896h-98.998v-76.591z" fill="#3b407a"/><path d="m272.369 114.692v329.031h-174.628c-15.476-14.366-28.992-30.817-40.094-48.909v-280.083z" fill="#ff514d"/><path d="m82.626 118.42h57.41v158.473h-57.41z" fill="#f03e73"/><path d="m165.011 116.727h107.361v326.998h-107.361z" fill="#f03e73"/><path d="m190.71 118.42h57.41v158.473h-57.41z" fill="#dd316b"/><path d="m165.011 276.558h107.361v167.167h-107.361z" fill="#f03e73"/><path d="m263.2 357.463v75.084h-88.484v-75.084c0-24.432 19.805-44.237 44.237-44.242h.005c12.218 0 23.274 4.954 31.284 12.958 8.004 8.006 12.958 19.071 12.958 31.284z" fill="#fff"/><path d="m263.2 357.463v75.084h-44.246v-119.325h.005c12.218 0 23.274 4.954 31.284 12.958 8.003 8.005 12.957 19.07 12.957 31.283z" fill="#ffedcc"/><path d="m165.013 276.555v167.168h-83.082c-8.683-8.064-16.8-16.704-24.288-25.877v-141.291z" fill="#ff514d"/><path d="m140.032 285.259v158.464h-42.293c-.523-.491-1.045-.459-1.557 0h-13.558v-158.464z" fill="#f03e73"/><path d="m57.65 266.034h214.721v21.717h-214.721z" fill="#dd316b"/><g><path d="m244.879 361.259v60.564h-51.842v-60.564c0-12.467 8.804-22.879 20.536-25.356 1.732-.368 3.534-.561 5.381-.561 1.572 0 3.111.138 4.604.404 12.121 2.17 21.321 12.771 21.321 25.513z" fill="#d86648"/><path d="m244.879 361.259v60.564h-25.926v-86.48c1.572 0 3.111.138 4.604.404 12.122 2.169 21.322 12.77 21.322 25.512z" fill="#c55733"/></g><path d="m263.2 432.548v11.175h-88.484v-11.175c0-1.935 1.567-3.501 3.501-3.501h81.481c1.935-.001 3.502 1.566 3.502 3.501z" fill="#f9d6a2"/><path d="m263.2 432.548v11.175h-44.246v-14.677h40.745c1.934 0 3.501 1.567 3.501 3.502z" fill="#efc792"/><path d="m249.888 417.876v11.171h-61.86v-11.171c0-1.935 1.567-3.501 3.501-3.501h54.857c1.935-.001 3.502 1.566 3.502 3.501z" fill="#ffedcc"/><path d="m450.059 414.133v8.843c-6.272 7.275-12.949 14.208-19.989 20.747h-157.697v-29.589h177.686z" fill="#2f316e"/><path d="m165.011 266.034h285.05v21.717h-285.05z" fill="#c62060"/><path d="m249.888 417.876v11.171h-30.934v-14.672h27.433c1.934-.001 3.501 1.566 3.501 3.501z" fill="#f9e1b9"/><path d="m283.039 114.195v8.448c0 2.488-2.017 4.505-4.505 4.505h-227.046c-2.488 0-4.505-2.017-4.505-4.505v-8.447c0-2.488 2.017-4.505 4.505-4.505l227.046-.002c2.488.001 4.505 2.018 4.505 4.506z" fill="#3b407a"/><path d="m283.039 114.196v8.447c0 2.488-2.017 4.505-4.505 4.505h-113.523v-17.457h113.523c2.488.001 4.505 2.017 4.505 4.505z" fill="#2f316e"/><path d="m203.1 386.505c-2.221 0-4.021-1.8-4.021-4.021v-7.952c0-2.221 1.8-4.021 4.021-4.021 2.221 0 4.021 1.8 4.021 4.021v7.952c0 2.22-1.8 4.021-4.021 4.021z" fill="#3b407a"/><g><path d="m293.449 321.603h47.39v47.394h-47.39z" fill="#3b407a"/><path d="m317.142 321.603h23.697v47.394h-23.697z" fill="#212559"/><g><g><path d="m296.806 374.005h-5.828c-1.403 0-2.54-1.137-2.54-2.54v-52.33c0-1.403 1.137-2.54 2.54-2.54h5.828c1.403 0 2.54 1.137 2.54 2.54v52.33c0 1.403-1.137 2.54-2.54 2.54z" fill="#ffedcc"/></g><g><path d="m343.308 374.005h-5.828c-1.403 0-2.54-1.137-2.54-2.54v-52.33c0-1.403 1.137-2.54 2.54-2.54h5.828c1.403 0 2.54 1.137 2.54 2.54v52.33c0 1.403-1.137 2.54-2.54 2.54z" fill="#f9d6a2"/></g><g><path d="m345.848 363.097v8.368c0 1.403-1.137 2.54-2.54 2.54h-52.33c-1.403 0-2.54-1.137-2.54-2.54v-8.368z" fill="#fff"/><path d="m345.848 363.097v8.368c0 1.403-1.137 2.54-2.54 2.54h-26.166v-10.908z" fill="#ffedcc"/></g><g><path d="m345.848 327.504v-8.368c0-1.403-1.137-2.54-2.54-2.54h-52.33c-1.403 0-2.54 1.137-2.54 2.54v8.368z" fill="#fff"/><path d="m345.848 327.504v-8.368c0-1.403-1.137-2.54-2.54-2.54h-26.166v10.908z" fill="#ffedcc"/></g></g></g><g><path d="m374.59 321.603h47.389v47.394h-47.389z" fill="#3b407a"/><path d="m398.283 321.603h23.697v47.394h-23.697z" fill="#212559"/><g><g><path d="m377.947 374.005h-5.828c-1.403 0-2.54-1.137-2.54-2.54v-52.33c0-1.403 1.137-2.54 2.54-2.54h5.828c1.403 0 2.54 1.137 2.54 2.54v52.33c0 1.403-1.137 2.54-2.54 2.54z" fill="#ffedcc"/></g><g><path d="m424.448 374.005h-5.828c-1.403 0-2.54-1.137-2.54-2.54v-52.33c0-1.403 1.137-2.54 2.54-2.54h5.828c1.403 0 2.54 1.137 2.54 2.54v52.33c0 1.403-1.137 2.54-2.54 2.54z" fill="#f9d6a2"/></g><g><path d="m426.988 363.097v8.368c0 1.403-1.137 2.54-2.54 2.54h-52.33c-1.403 0-2.54-1.137-2.54-2.54v-8.368z" fill="#fff"/><path d="m426.988 363.097v8.368c0 1.403-1.137 2.54-2.54 2.54h-26.166v-10.908z" fill="#ffedcc"/></g><g><path d="m426.988 327.504v-8.368c0-1.403-1.137-2.54-2.54-2.54h-52.33c-1.403 0-2.54 1.137-2.54 2.54v8.368z" fill="#fff"/><path d="m426.988 327.504v-8.368c0-1.403-1.137-2.54-2.54-2.54h-26.166v10.908z" fill="#ffedcc"/></g></g></g><path d="m272.372 266.034h177.689v21.717h-177.689z" fill="#2f316e"/></g><g><g><g><path d="m430.048 443.723c-8.789 8.171-18.165 15.723-28.043 22.592-36.576 25.429-80.085 41.568-127.136 45.003-6.219.448-12.491.683-18.827.683h-.042c-54.272 0-104.587-16.885-146.005-45.685-9.877-6.869-19.253-14.421-28.043-22.592h348.096z" fill="#dfebff"/></g></g><path d="m430.048 443.723c-8.789 8.171-18.165 15.723-28.043 22.592-36.576 25.429-80.085 41.568-127.136 45.003v-67.595z" fill="#9bc6f9"/></g></g><g><g><path d="m82.622 173.836h57.414v41.736h-57.414z" fill="#f9d6a2"/><path d="m129.021 171.828v43.744h-35.373v-43.454c0-9.703 7.685-17.812 17.387-17.976 9.905-.156 17.986 7.819 17.986 17.686z" fill="#3b407a"/><path d="m114.742 154.479v52.722h-6.816v-52.732c1.091-.222 2.22-.328 3.379-.328h.029c1.062 0 2.105.097 3.109.28.097.019.203.038.299.058z" fill="#fff"/><path d="m114.742 154.479v52.722h-3.408v-53.06c1.062 0 2.105.097 3.109.28.097.019.203.038.299.058z" fill="#ffedcc"/><g><path d="m140.036 209.742v5.828c0 1.403-1.137 2.54-2.54 2.54h-52.33c-1.403 0-2.54-1.137-2.54-2.54v-5.828c0-1.403 1.137-2.54 2.54-2.54h52.33c1.403 0 2.54 1.137 2.54 2.54z" fill="#fff"/><path d="m140.036 209.742v5.828c0 1.403-1.137 2.54-2.54 2.54h-26.166v-10.908h26.166c1.403 0 2.54 1.137 2.54 2.54z" fill="#ffedcc"/></g><path d="m140.037 171.654v2.182c0 1.699-1.381 3.08-3.089 3.08h-4.846c-1.699 0-3.08-1.381-3.08-3.08v-2.008c0-9.77-7.917-17.677-17.696-17.687h-.29c-9.703.164-17.387 8.274-17.387 17.976v1.719c0 1.699-1.39 3.08-3.089 3.08h-4.847c-1.699 0-3.089-1.381-3.089-3.08v-2.549c0-15.823 12.869-28.693 28.702-28.702h.29c15.802.154 28.421 13.265 28.421 29.069z" fill="#fff"/><path d="m140.037 171.654v2.182c0 1.699-1.381 3.08-3.089 3.08h-4.846c-1.699 0-3.08-1.381-3.08-3.08v-2.008c0-9.77-7.917-17.677-17.696-17.687v-11.556h.29c15.802.154 28.421 13.265 28.421 29.069z" fill="#ffedcc"/></g><g><path d="m82.622 353.139h57.414v41.736h-57.414z" fill="#f9d6a2"/><path d="m129.021 351.131v43.744h-35.373v-43.454c0-9.703 7.685-17.812 17.387-17.976 9.905-.155 17.986 7.82 17.986 17.686z" fill="#3b407a"/><path d="m114.742 333.782v52.722h-6.816v-52.732c1.091-.222 2.22-.328 3.379-.328h.029c1.062 0 2.105.097 3.109.28.097.02.203.039.299.058z" fill="#fff"/><path d="m114.742 333.782v52.722h-3.408v-53.06c1.062 0 2.105.097 3.109.28.097.02.203.039.299.058z" fill="#ffedcc"/><g><path d="m140.036 389.046v5.828c0 1.403-1.137 2.54-2.54 2.54h-52.33c-1.403 0-2.54-1.137-2.54-2.54v-5.828c0-1.403 1.137-2.54 2.54-2.54h52.33c1.403 0 2.54 1.137 2.54 2.54z" fill="#fff"/><path d="m140.036 389.046v5.828c0 1.403-1.137 2.54-2.54 2.54h-26.166v-10.908h26.166c1.403 0 2.54 1.137 2.54 2.54z" fill="#ffedcc"/></g><path d="m140.037 350.958v2.182c0 1.699-1.381 3.08-3.089 3.08h-4.846c-1.699 0-3.08-1.381-3.08-3.08v-2.008c0-9.77-7.917-17.677-17.696-17.687h-.29c-9.703.164-17.387 8.274-17.387 17.976v1.719c0 1.699-1.39 3.08-3.089 3.08h-4.847c-1.699 0-3.089-1.381-3.089-3.08v-2.549c0-15.823 12.869-28.693 28.702-28.702h.29c15.802.154 28.421 13.264 28.421 29.069z" fill="#fff"/><path d="m140.037 350.958v2.182c0 1.699-1.381 3.08-3.089 3.08h-4.846c-1.699 0-3.08-1.381-3.08-3.08v-2.008c0-9.77-7.917-17.677-17.696-17.687v-11.556h.29c15.802.154 28.421 13.264 28.421 29.069z" fill="#ffedcc"/></g><g><path d="m190.707 173.836h57.414v41.736h-57.414z" fill="#f9d6a2"/><path d="m237.106 171.828v43.744h-35.374v-43.454c0-9.703 7.685-17.812 17.387-17.976 9.906-.156 17.987 7.819 17.987 17.686z" fill="#3b407a"/><path d="m222.827 154.479v52.722h-6.816v-52.732c1.091-.222 2.22-.328 3.379-.328h.029c1.062 0 2.105.097 3.109.28.096.019.202.038.299.058z" fill="#fff"/><path d="m222.827 154.479v52.722h-3.408v-53.06c1.062 0 2.105.097 3.109.28.096.019.202.038.299.058z" fill="#ffedcc"/><g><path d="m248.121 209.742v5.828c0 1.403-1.137 2.54-2.54 2.54h-52.33c-1.403 0-2.54-1.137-2.54-2.54v-5.828c0-1.403 1.137-2.54 2.54-2.54h52.33c1.402 0 2.54 1.137 2.54 2.54z" fill="#fff"/><path d="m248.121 209.742v5.828c0 1.403-1.137 2.54-2.54 2.54h-26.166v-10.908h26.166c1.402 0 2.54 1.137 2.54 2.54z" fill="#ffedcc"/></g><path d="m248.121 171.654v2.182c0 1.699-1.381 3.08-3.089 3.08h-4.846c-1.699 0-3.08-1.381-3.08-3.08v-2.008c0-9.77-7.917-17.677-17.696-17.687h-.29c-9.703.164-17.387 8.274-17.387 17.976v1.719c0 1.699-1.39 3.08-3.089 3.08h-4.846c-1.699 0-3.089-1.381-3.089-3.08v-2.549c0-15.823 12.869-28.693 28.702-28.702h.29c15.802.154 28.42 13.265 28.42 29.069z" fill="#fff"/><path d="m248.121 171.654v2.182c0 1.699-1.381 3.08-3.089 3.08h-4.846c-1.699 0-3.08-1.381-3.08-3.08v-2.008c0-9.77-7.917-17.677-17.696-17.687v-11.556h.29c15.803.154 28.421 13.265 28.421 29.069z" fill="#ffedcc"/></g></g></g></g></g></svg>