<?xml version="1.0" encoding="iso-8859-1"?>
<!-- Generator: Adobe Illustrator 19.0.0, SVG Export Plug-In . SVG Version: 6.00 Build 0)  -->
<svg version="1.1" id="Capa_1" xmlns="http://www.w3.org/2000/svg" xmlns:xlink="http://www.w3.org/1999/xlink" x="0px" y="0px"
	 viewBox="0 0 511.68 511.68" style="enable-background:new 0 0 511.68 511.68;" xml:space="preserve">
<path style="fill:#3F4347;" d="M255.856,7.712C118.832,7.712,7.728,118.8,7.728,255.84s111.088,248.128,248.128,248.128
	S503.984,392.88,503.984,255.84C503.984,118.8,392.896,7.712,255.856,7.712z M255.856,440.8c-102.16,0-184.96-82.816-184.96-184.96
	s82.816-184.96,184.96-184.96s184.96,82.816,184.96,184.96S358.016,440.8,255.856,440.8z"/>
<path style="fill:#DAE5EF;" d="M376.816,247.648c-31.296-8.288-61.36-20.176-89.808-35.6c-9.264-5.024-19.856-7.872-31.152-7.872
	c-11.296,0-21.888,2.864-31.152,7.872c-28.464,15.424-58.528,27.312-89.824,35.6c-21.472,5.696-42.64,12.928-63.312,21.744
	c1.264,17.392,4.992,34.08,10.72,49.792h78.528c32.208,0,58.304,26.112,58.304,58.304v59.6c11.872,2.4,24.144,3.696,36.72,3.696
	s24.848-1.296,36.72-3.696v-59.6c0-32.208,26.112-58.304,58.304-58.304h78.528c5.728-15.728,9.456-32.416,10.72-49.792
	C419.456,260.576,398.288,253.328,376.816,247.648z"/>
<circle style="fill:#3F4347;" cx="255.84" cy="270.8" r="51.696"/>
<g>
	<circle style="fill:#E24B4B;" cx="255.84" cy="270.8" r="26.736"/>
	<path style="fill:#E24B4B;" d="M511.68,255.84c0,67.52-26.24,129.12-69.12,174.88c-3.2,3.36-8.48,3.36-11.68,0.16l-44.32-44.32
		c-3.04-3.04-3.04-7.84-0.16-11.04c28.96-31.52,46.72-73.6,46.72-119.68s-17.76-88.16-46.72-119.68c-2.88-3.2-2.88-8,0.16-11.04
		l44.32-44.32c3.2-3.2,8.48-3.2,11.68,0.16C485.44,126.72,511.68,188.32,511.68,255.84z"/>
	<path style="fill:#E24B4B;" d="M125.28,136.16c-28.96,31.52-46.56,73.6-46.56,119.68s17.6,88.16,46.56,119.68
		c2.88,3.2,2.88,8-0.16,11.04l-44.16,44.32c-3.36,3.2-8.64,3.2-11.68-0.16C26.24,384.96,0,323.36,0,255.84S26.24,126.72,69.28,80.96
		c3.04-3.36,8.32-3.36,11.68-0.16l44.16,44.32C128.16,128.16,128.16,132.96,125.28,136.16z"/>
</g>
<g>
</g>
<g>
</g>
<g>
</g>
<g>
</g>
<g>
</g>
<g>
</g>
<g>
</g>
<g>
</g>
<g>
</g>
<g>
</g>
<g>
</g>
<g>
</g>
<g>
</g>
<g>
</g>
<g>
</g>
</svg>
