<svg id="Capa_1" enable-background="new 0 0 346.46 346.46" height="512" viewBox="0 0 346.46 346.46" width="512" xmlns="http://www.w3.org/2000/svg"><g><path d="m208.349 35.773c-.4-1.626-1.858-2.769-3.532-2.77h-62.75c-1.676-.001-3.136 1.143-3.537 2.77l-6.925 27.942h83.634z" fill="#f7be56"/><g fill="#3a556a"><path d="m147.637 39.403h7.449v7.449h-7.449z"/><path d="m154.894 46.66h7.449v7.449h-7.449z"/><path d="m162.343 39.403h7.449v7.449h-7.449z"/><path d="m169.599 46.66h7.449v7.449h-7.449z"/><path d="m177.054 39.403h7.449v7.449h-7.449z"/><path d="m184.31 46.66h7.449v7.449h-7.449z"/><path d="m191.759 39.403h7.449v7.449h-7.449z"/></g><path d="m290.942 243.77 25.464-.152c4.854-.029 8.813 3.883 8.842 8.737l.302 50.566c.029 4.854-3.883 8.813-8.737 8.842l-25.464.152c-4.854.029-8.813-3.883-8.842-8.737l-.302-50.566c-.029-4.854 3.882-8.813 8.737-8.842z" fill="#2f4859"/><path d="m31.789 245.312 25.464-.152c4.854-.029 8.813 3.883 8.842 8.737l.302 50.566c.029 4.854-3.883 8.813-8.737 8.842l-25.464.152c-4.854.029-8.813-3.883-8.842-8.737l-.302-50.566c-.029-4.854 3.883-8.813 8.737-8.842z" fill="#2f4859"/><path d="m319.891 120.613c-2.128.2-3.747 1.998-3.725 4.135.522 4.169-2.148 8.072-6.223 9.096l-6.336.035 3.255 9.492s40.793-.242 39.571-13.642c-.95-10.412-18.653-9.873-26.542-9.116z" fill="#2f4859"/><path d="m26.569 120.613c2.128.2 3.747 1.998 3.725 4.135-.522 4.169 2.148 8.072 6.223 9.096l6.336.035-3.255 9.492s-40.793-.242-39.571-13.642c.95-10.412 18.653-9.873 26.542-9.116z" fill="#2f4859"/><path d="m337.342 200.161c-.764-9.964-3.644-19.65-8.448-28.412l-17.164-31.528s-30.559-68.809-43.281-74.285c-12.297-5.293-90.766-6.47-95.995-6.554h-.282c-5.204.134-83.678 2.265-95.911 7.702-12.653 5.629-42.376 74.794-42.376 74.794l-16.818 31.736c-4.702 8.816-7.468 18.535-8.112 28.506-1.182 22.025 1.191 44.097 7.029 65.367 2.748 10.03 11.909 16.95 22.308 16.852l135.215-.801h.282l135.195-.806c10.401-.028 19.479-7.057 22.11-17.119 5.58-21.342 7.69-43.441 6.248-65.452z" fill="#fcd462"/><path d="m107.491 241.061 131.742-.79c2.358-.014 4.28 1.886 4.294 4.243l.135 22.432c.014 2.358-1.886 4.28-4.243 4.294l-131.742.79c-2.358.014-4.28-1.886-4.294-4.243l-.135-22.432c-.014-2.357 1.886-4.28 4.243-4.294z" fill="#3a556a"/><path d="m270.911 76.318c-1.372-2.996-4.337-4.943-7.632-5.011l-90.084-1.845h-.282l-90.059 2.923c-3.289.113-6.225 2.093-7.563 5.1l-25.84 58.125 123.853-.742h.282l123.853-.712z" fill="#2f4859"/><path d="m300.239 236.487c-8.682.06-15.67 7.147-15.61 15.828.06 8.682 7.147 15.67 15.828 15.61 8.675-.06 15.662-7.137 15.61-15.813-.052-8.682-7.131-15.677-15.813-15.626-.005.001-.01.001-.015.001z" fill="#ebf0f3"/><path d="m47.77 237.991c-8.684.058-15.678 7.144-15.62 15.828s7.144 15.678 15.828 15.62c8.682-.058 15.675-7.141 15.62-15.823-.052-8.682-7.131-15.677-15.813-15.626-.005.001-.01.001-.015.001z" fill="#ebf0f3"/><path d="m295.075 174.598c-26.018 3.24-32.646 25.014-34.368 35.431-.414 2.576 1.34 4.999 3.915 5.413.29.047.584.066.878.058 11.202-.213 22.382-1.08 33.482-2.597 18.9-2.77 30.495-42.588-3.907-38.305z" fill="#e1e6e9"/><path d="m297.32 182.74c-5.506.505-9.561 5.377-9.056 10.883s5.377 9.561 10.883 9.056 9.561-5.377 9.056-10.883c0-.005-.001-.009-.001-.014-.512-5.5-5.381-9.546-10.882-9.042z" fill="#bdbec1"/><path d="m276.654 193.375c-4.184.387-7.262 4.092-6.875 8.275.387 4.184 4.092 7.262 8.275 6.875 4.184-.387 7.262-4.091 6.875-8.275-.384-4.181-4.084-7.26-8.265-6.876-.003 0-.006 0-.01.001z" fill="#bdbec1"/><path d="m51.816 174.598c26.018 3.24 32.646 25.014 34.363 35.431.413 2.576-1.34 4.999-3.915 5.413-.29.047-.584.066-.878.058-11.202-.213-22.382-1.08-33.482-2.597-18.896-2.77-30.486-42.588 3.912-38.305z" fill="#e1e6e9"/><path d="m49.57 182.74c5.506.505 9.561 5.377 9.056 10.883s-5.377 9.561-10.883 9.056-9.561-5.377-9.056-10.883c0-.005.001-.009.001-.014.512-5.5 5.381-9.546 10.882-9.042z" fill="#bdbec1"/><path d="m70.236 193.375c4.183.389 7.259 4.096 6.87 8.28-.389 4.183-4.096 7.259-8.28 6.87-4.181-.389-7.256-4.093-6.87-8.274.386-4.184 4.091-7.262 8.275-6.876.001-.001.003-.001.005 0z" fill="#bdbec1"/><path d="m92.688 186.875 13.899 28.63h130.59l17.006-28.63z" fill="#3a556a"/></g></svg>